<?xml version="1.0" encoding="utf-8"?>
<!-- Generator: Adobe Illustrator 24.1.1, SVG Export Plug-In . SVG Version: 6.00 Build 0)  -->
<svg version="1.1" id="Layer_1" xmlns="http://www.w3.org/2000/svg" xmlns:xlink="http://www.w3.org/1999/xlink" x="0px" y="0px"
	 viewBox="0 0 286 180" style="enable-background:new 0 0 286 180;" xml:space="preserve">
<style type="text/css">
	.st0{fill:#17A2B8;}
	.st1{fill:#FFFFFF;}
</style>
<g id="holder_17103da30ea">
	<rect class="st0" width="286" height="180"/>
	<g>
		<g>
			<path class="st1" d="M27.5,113V62.6h14.3c4.4,0,7.8,1.1,10.4,3.2c2.6,2.1,3.8,4.9,3.8,8.3c0,2.9-0.8,5.3-2.3,7.5
				s-3.7,3.6-6.4,4.5v0.1c3.4,0.4,6.1,1.7,8.2,3.8c2,2.2,3.1,5,3.1,8.5c0,4.3-1.5,7.8-4.6,10.5s-7,4-11.7,4H27.5z M33.4,67.9v16.3h6
				c3.2,0,5.8-0.8,7.6-2.3c1.9-1.6,2.8-3.8,2.8-6.6c0-4.9-3.2-7.3-9.7-7.3H33.4z M33.4,89.5v18.1h8c3.5,0,6.2-0.8,8.1-2.5
				c1.9-1.6,2.9-3.9,2.9-6.8c0-6-4.1-8.9-12.2-8.9H33.4z"/>
			<path class="st1" d="M97.1,113h-5.8v-5.7h-0.1c-2.4,4.4-6.1,6.5-11.1,6.5c-8.6,0-12.9-5.1-12.9-15.3V77h5.7v20.6
				c0,7.6,2.9,11.4,8.7,11.4c2.8,0,5.1-1,6.9-3.1c1.8-2.1,2.7-4.8,2.7-8.1V77h5.8V113z"/>
			<path class="st1" d="M125.4,112.6c-1.4,0.8-3.2,1.1-5.4,1.1c-6.3,0-9.5-3.5-9.5-10.5V81.9h-6.2V77h6.2v-8.8l5.8-1.9V77h9.1v4.9
				h-9.1v20.3c0,2.4,0.4,4.1,1.2,5.2c0.8,1,2.2,1.5,4.1,1.5c1.5,0,2.7-0.4,3.8-1.2V112.6z"/>
			<path class="st1" d="M149.8,112.6c-1.4,0.8-3.2,1.1-5.4,1.1c-6.3,0-9.5-3.5-9.5-10.5V81.9h-6.2V77h6.2v-8.8l5.8-1.9V77h9.1v4.9
				h-9.1v20.3c0,2.4,0.4,4.1,1.2,5.2c0.8,1,2.2,1.5,4.1,1.5c1.5,0,2.7-0.4,3.8-1.2V112.6z"/>
			<path class="st1" d="M172.5,113.8c-5.3,0-9.6-1.7-12.7-5S155,101,155,95.4c0-6,1.7-10.8,5-14.2c3.3-3.4,7.8-5.1,13.4-5.1
				c5.4,0,9.6,1.7,12.6,5s4.5,7.9,4.5,13.7c0,5.7-1.6,10.3-4.9,13.8S178,113.8,172.5,113.8z M173,81c-3.7,0-6.6,1.3-8.8,3.8
				c-2.2,2.5-3.2,6-3.2,10.4c0,4.3,1.1,7.6,3.3,10.1s5.1,3.7,8.8,3.7c3.7,0,6.6-1.2,8.6-3.6s3-5.8,3-10.3c0-4.5-1-8-3-10.4
				C179.6,82.2,176.7,81,173,81z"/>
			<path class="st1" d="M229.6,113h-5.8V92.5c0-7.6-2.8-11.5-8.4-11.5c-2.9,0-5.3,1.1-7.2,3.3c-1.9,2.2-2.8,4.9-2.8,8.2V113h-5.8V77
				h5.8v6h0.1c2.7-4.5,6.7-6.8,11.8-6.8c3.9,0,6.9,1.3,9,3.8c2.1,2.5,3.1,6.2,3.1,11V113z"/>
			<path class="st1" d="M238.3,111.7v-6.2c3.1,2.3,6.6,3.5,10.4,3.5c5.1,0,7.6-1.7,7.6-5.1c0-1-0.2-1.8-0.7-2.4s-1-1.3-1.8-1.8
				s-1.6-1-2.6-1.4s-2.1-0.8-3.2-1.3c-1.6-0.6-3-1.3-4.2-1.9s-2.2-1.4-3-2.2s-1.4-1.7-1.8-2.8s-0.6-2.2-0.6-3.6
				c0-1.7,0.4-3.2,1.2-4.5s1.8-2.4,3.1-3.3s2.8-1.5,4.4-2c1.7-0.4,3.4-0.7,5.1-0.7c3.1,0,5.9,0.5,8.4,1.6v5.8
				c-2.6-1.7-5.7-2.6-9.1-2.6c-1.1,0-2.1,0.1-2.9,0.4s-1.6,0.6-2.2,1c-0.6,0.4-1.1,1-1.4,1.6c-0.3,0.6-0.5,1.3-0.5,2.1
				c0,0.9,0.2,1.7,0.5,2.4s0.8,1.2,1.5,1.7s1.5,0.9,2.4,1.3s2,0.8,3.2,1.3c1.6,0.6,3,1.2,4.3,1.9s2.3,1.4,3.2,2.2s1.6,1.7,2.1,2.8
				s0.7,2.3,0.7,3.8c0,1.8-0.4,3.3-1.2,4.6s-1.8,2.4-3.1,3.3s-2.8,1.5-4.5,1.9s-3.5,0.6-5.4,0.6C244.2,113.8,241,113.1,238.3,111.7z
				"/>
		</g>
	</g>
</g>
</svg>
