<?xml version="1.0" encoding="utf-8"?>
<!-- Generator: Adobe Illustrator 24.1.1, SVG Export Plug-In . SVG Version: 6.00 Build 0)  -->
<svg version="1.1" id="Layer_1" xmlns="http://www.w3.org/2000/svg" xmlns:xlink="http://www.w3.org/1999/xlink" x="0px" y="0px"
	 viewBox="0 0 286 180" style="enable-background:new 0 0 286 180;" xml:space="preserve">
<style type="text/css">
	.st0{fill:#17A2B8;}
	.st1{fill:#FFFFFF;}
</style>
<g id="holder_17103da30ea">
	<rect class="st0" width="286" height="180"/>
	<g>
		<g>
			<path class="st1" d="M94.3,110.9c-3.7,2-8.4,3-13.9,3c-7.2,0-12.9-2.3-17.2-6.9c-4.3-4.6-6.5-10.7-6.5-18.2
				c0-8.1,2.4-14.6,7.3-19.5c4.9-5,11-7.5,18.5-7.5c4.8,0,8.7,0.7,11.9,2.1v6.3c-3.6-2-7.6-3-12-3c-5.8,0-10.5,1.9-14.1,5.8
				c-3.6,3.9-5.4,9-5.4,15.5c0,6.1,1.7,11,5,14.7c3.4,3.6,7.8,5.5,13.2,5.5c5.1,0,9.4-1.1,13.1-3.4V110.9z"/>
			<path class="st1" d="M129.6,113h-5.8v-5.6h-0.1c-2.5,4.3-6.2,6.5-11.1,6.5c-3.6,0-6.4-0.9-8.4-2.8c-2-1.9-3-4.4-3-7.6
				c0-6.7,4-10.6,11.9-11.7l10.8-1.5c0-6.1-2.5-9.2-7.4-9.2c-4.3,0-8.3,1.5-11.7,4.4v-5.9c3.5-2.3,7.6-3.4,12.2-3.4
				c8.5,0,12.7,4.5,12.7,13.4V113z M123.8,94.8l-8.7,1.2c-2.7,0.4-4.7,1-6,2c-1.4,0.9-2,2.6-2,5c0,1.8,0.6,3.2,1.9,4.3
				c1.3,1.1,2.9,1.7,5,1.7c2.9,0,5.2-1,7.1-3s2.8-4.5,2.8-7.6V94.8z"/>
			<path class="st1" d="M159.2,82.8c-1-0.8-2.5-1.2-4.4-1.2c-2.5,0-4.5,1.2-6.2,3.5s-2.5,5.5-2.5,9.5V113h-5.8V77h5.8v7.4h0.1
				c0.8-2.5,2.1-4.5,3.8-5.9c1.7-1.4,3.6-2.1,5.7-2.1c1.5,0,2.6,0.2,3.4,0.5V82.8z"/>
			<path class="st1" d="M196.2,113h-5.8v-6.1h-0.1c-2.7,4.6-6.8,7-12.4,7c-4.5,0-8.1-1.6-10.8-4.8s-4.1-7.6-4.1-13.2
				c0-6,1.5-10.7,4.5-14.3s7-5.4,12-5.4c4.9,0,8.5,1.9,10.8,5.8h0.1V59.7h5.8V113z M190.4,96.7v-5.3c0-2.9-1-5.4-2.9-7.4
				c-1.9-2-4.4-3-7.3-3c-3.5,0-6.3,1.3-8.3,3.9c-2,2.6-3,6.1-3,10.7c0,4.1,1,7.4,2.9,9.8s4.5,3.6,7.8,3.6c3.2,0,5.8-1.2,7.8-3.5
				S190.4,100.3,190.4,96.7z"/>
			<path class="st1" d="M205.7,111.7v-6.2c3.1,2.3,6.6,3.5,10.4,3.5c5.1,0,7.6-1.7,7.6-5.1c0-1-0.2-1.8-0.7-2.4s-1-1.3-1.8-1.8
				s-1.6-1-2.6-1.4s-2.1-0.8-3.2-1.3c-1.6-0.6-3-1.3-4.2-1.9s-2.2-1.4-3-2.2s-1.4-1.7-1.8-2.8s-0.6-2.2-0.6-3.6
				c0-1.7,0.4-3.2,1.2-4.5s1.8-2.4,3.1-3.3s2.8-1.5,4.4-2c1.7-0.4,3.4-0.7,5.1-0.7c3.1,0,5.9,0.5,8.4,1.6v5.8
				c-2.6-1.7-5.7-2.6-9.1-2.6c-1.1,0-2.1,0.1-2.9,0.4s-1.6,0.6-2.2,1c-0.6,0.4-1.1,1-1.4,1.6c-0.3,0.6-0.5,1.3-0.5,2.1
				c0,0.9,0.2,1.7,0.5,2.4s0.8,1.2,1.5,1.7s1.5,0.9,2.4,1.3s2,0.8,3.2,1.3c1.6,0.6,3,1.2,4.3,1.9s2.3,1.4,3.2,2.2s1.6,1.7,2.1,2.8
				s0.7,2.3,0.7,3.8c0,1.8-0.4,3.3-1.2,4.6s-1.8,2.4-3.1,3.3s-2.8,1.5-4.5,1.9s-3.5,0.6-5.4,0.6
				C211.6,113.8,208.4,113.1,205.7,111.7z"/>
		</g>
	</g>
</g>
</svg>
