<?xml version="1.0" encoding="utf-8"?>
<!-- Generator: Adobe Illustrator 24.0.2, SVG Export Plug-In . SVG Version: 6.00 Build 0)  -->
<svg version="1.1" id="Layer_1" xmlns="http://www.w3.org/2000/svg" xmlns:xlink="http://www.w3.org/1999/xlink" x="0px" y="0px"
	 viewBox="0 0 819.4 599.3" style="enable-background:new 0 0 819.4 599.3;" xml:space="preserve">
<style type="text/css">
	.st0{opacity:0.1;fill:#00B1FF;enable-background:new    ;}
	.st1{opacity:0.56;fill:#5E5E5E;enable-background:new    ;}
	.st2{fill:#EFB7B9;}
	.st3{opacity:5.000000e-02;enable-background:new    ;}
	.st4{fill:none;}
	.st5{fill:#65617D;}
	.st6{fill:#DCE0ED;}
	.st7{fill:#74E88F;}
	.st8{opacity:0.1;enable-background:new    ;}
	.st9{opacity:0.2;fill:#FFFFFF;enable-background:new    ;}
	.st10{fill:#CEEDE8;}
	.st11{fill:#444053;}
	.st12{fill:#A36468;}
	.st13{fill:#965D7B;}
	.st14{opacity:0.1;}
	.st15{fill:#DDA2A6;}
	.st16{fill:#B77B7F;}
	.st17{opacity:0.3;fill:#FFFFFF;enable-background:new    ;}
</style>
<title>scooter</title>
<g id="scooter">
	<path id="top-cloud" class="st0" d="M779.6,169.5c-8.1-18.8-19.1-36.3-32.5-51.8l-450.9-4.4l371.3-52.1
		c-24-9.5-49.5-14.6-75.3-14.9c-72.9-58.3-175.5-61.8-252.2-8.5c-29.9-15.3-63-23.3-96.5-23.3C143.2,14.4,59.7,83.8,41,175.8
		L779.6,169.5z"/>
	<path id="bottom-cloud" class="st0" d="M819.4,246.7c0-25-4.7-49.7-14-72.8l-781.5,82c-8,14.6-14.2,30.1-18.3,46.3l242,36.1
		L0,364.5c7.5,104.1,96.8,186.4,205.8,186.4c52.5,0.2,103.1-19.4,141.8-54.8c38.8,36.1,90,56.1,143,55.9
		c82.4,0,153.4-46.9,186.5-114.7c66.4-21.1,118-74,135.7-140.2l-306.1-47.5h312.7C819.3,248.7,819.4,247.7,819.4,246.7z"/>
	<path id="Path_94" class="st1" d="M410.2,582c105.1,0,190.2,3.9,190.2,8.6s-85.2,8.6-190.2,8.6S220,595.4,220,590.6
		S305.2,582,410.2,582z"/>
	<path id="Path_30" class="st2" d="M390.9,332.7c0,0,12.1,22.9,13.1,26.2c0.5,1.9,2.2,3.2,4.1,3.3c0,0,12.1,2.9,15,3.3
		s27.9,2.5,27.9,2.5s6.4,0.2,7.1-2.1c0.7-2.1,13-13.2,20.1-3.5c1.3,1.8,1.7,4.2,1,6.3c-1.3,4.2-4,10.8-6.9,6.7
		c-4-5.8-8.7-4.2-8.7-1.1s-6.5,1.9-8.6,2.4c-1.1,0.2-5.1,1.3-8.6,2.2c-4,1.1-8.1,1.7-12.2,2c-6.8,0.5-16.9,0.8-20.4-0.5
		c-4.3-1.6-11.8-2-15-2.1c-1.1,0-2.1-0.4-2.9-1c-4.5-3.5-8.2-7.8-11.1-12.6c-5-8.7-15.3-26.6-14.6-31.8S390.9,332.7,390.9,332.7z"/>
	<path id="Path_31" class="st3" d="M390.9,332.7c0,0,12.1,22.9,13.1,26.2c0.5,1.9,2.2,3.2,4.1,3.3c0,0,12.1,2.9,15,3.3
		s27.9,2.5,27.9,2.5s6.4,0.2,7.1-2.1c0.7-2.1,13-13.2,20.1-3.5c1.3,1.8,1.7,4.2,1,6.3c-1.3,4.2-4,10.8-6.9,6.7
		c-4-5.8-8.7-4.2-8.7-1.1s-6.5,1.9-8.6,2.4c-1.1,0.2-5.1,1.3-8.6,2.2c-4,1.1-8.1,1.7-12.2,2c-6.8,0.5-16.9,0.8-20.4-0.5
		c-4.3-1.6-11.8-2-15-2.1c-1.1,0-2.1-0.4-2.9-1c-4.5-3.5-8.2-7.8-11.1-12.6c-5-8.7-15.3-26.6-14.6-31.8S390.9,332.7,390.9,332.7z"/>
	<path id="Path_32" class="st4" d="M530,506c-5.5,6-9.5,8.3-9.3,2c0.6-19-33-105.2-33-105.2l9.9-0.8
		C519.2,439.3,527.3,477.6,530,506z"/>
	<path id="Path_33" class="st5" d="M577.2,547.6c-0.1,26.3-21.5,47.6-47.8,47.5c-24.7-0.1-45.2-18.9-47.3-43.5
		c-0.1-0.8-0.1-1.5-0.1-2.3l0,0c0-0.6,0-1.2,0-1.7c0-26.3,21.3-47.7,47.6-47.7c26.3,0,47.7,21.3,47.7,47.6
		C577.2,547.5,577.2,547.6,577.2,547.6L577.2,547.6z"/>
	<circle id="Ellipse_7" class="st6" cx="529.6" cy="547.6" r="26"/>
	<circle id="Ellipse_8" class="st5" cx="529.6" cy="547.6" r="15.6"/>
	<path id="Path_34" class="st5" d="M404.5,457.1l-114.7,2.3v-16.9c1-13.6,15-18.4,27.7-19.9c9.9-1.1,20-0.4,29.6,2.2
		c24.3,6.5,39.9,7.7,47.5,7.8c3.4,0.1,6.4,2.5,7,5.9c0.4,1.9,0.7,4,1.1,6.1c0.3,1.6,0.5,3.2,0.7,4.7
		C404,453.7,404.5,457.1,404.5,457.1z"/>
	<path id="Path_35" class="st7" d="M496,550.6H257.7c-3.8,0-7.2-2.2-8.7-5.6c-1.8-4.3,0.7-7,3.4-8.6c5.5-3.2,9.6-8.3,11.7-14.3
		c2.5-7.5,5-19.3,6-37.6c1-19,7.9-28.4,15.3-32.9l0,0c9.6-5.9,20.1-3.7,20.1-3.7l96.6,0.8c1.7,0.8,3.3,1.8,4.7,3.1
		c8.6,8-4,18.5-4,18.5c-27,28.5-6.5,57.4-6.5,57.4h49.5c9.2,0,18.2-2.7,25.9-7.9c6.7-4.6,9.2-9.1,10.3-11.8c0.8-2.1,1.5-4.1,2.5-6.1
		c13-28.1-2.7-73.9-9.4-91c-1.7-4.3-2.8-6.7-2.8-6.7l15.5-1.2l9.8-0.7h0.1c21.6,37.3,29.7,75.6,32.3,103.9c0.3,2.7,0.5,5.3,0.6,7.8
		c1.3,19.1-13.2,35.6-32.3,36.8c0,0,0,0,0,0C497.5,550.6,496.8,550.7,496,550.6L496,550.6z"/>
	<path id="Path_36" class="st8" d="M403.4,449.4H289.7v-4.7h112.9C402.9,446.3,403.2,447.9,403.4,449.4z"/>
	<path id="Path_37" class="st8" d="M406.9,451.7H286.3c-0.3,0-0.6-0.1-0.9-0.2c9.6-5.9,20.1-3.7,20.1-3.7l96.6,0.8
		C403.9,449.4,405.5,450.5,406.9,451.7z"/>
	<path id="Rectangle_73" class="st6" d="M244.1,445.8h163.7c1.3,0,2.4,1.1,2.4,2.4l0,0c0,1.3-1.1,2.4-2.4,2.4H244.1
		c-1.3,0-2.4-1.1-2.4-2.4l0,0C241.8,446.9,242.8,445.8,244.1,445.8z"/>
	<path id="Path_38" class="st8" d="M530,506c-5.5,6-9.5,8.3-9.3,2c0.6-19-33-105.2-33-105.2l9.9-0.8
		C519.2,439.3,527.3,477.6,530,506z"/>
	<path id="Path_39" class="st8" d="M576.9,542.4c-5.7,1.4-12.7,2.8-21.4,4c-3.2,0.5-6.7,0.9-10.4,1.4c-8.8,1-19.1,2-30.9,2.7
		c-3.3,0.2-6.8,0.4-10.4,0.5c-6.8,0.3-14,0.5-21.7,0.7l-0.1-2.3l0,0c10.8-4.3,27.7-16,30.4-46.2c24.6-9.5,52.2,2.8,61.6,27.4
		C575.5,534.3,576.5,538.3,576.9,542.4L576.9,542.4z"/>
	<path id="Path_40" class="st7" d="M473,550.6c0,0,54.7-5.9,35.8-89.3c0,0,27,24.8,43.8,38.6s46.8,32.7,46.8,32.7
		S581.6,549.4,473,550.6z"/>
	<path id="Path_41" class="st9" d="M473,550.6c0,0,54.7-5.9,35.8-89.3c0,0,27,24.8,43.8,38.6s46.8,32.7,46.8,32.7
		S581.6,549.4,473,550.6z"/>
	<circle id="Ellipse_9" class="st5" cx="326.9" cy="547.6" r="47.6"/>
	<circle id="Ellipse_10" class="st6" cx="326.9" cy="547.6" r="26"/>
	<circle id="Ellipse_11" class="st5" cx="326.9" cy="547.6" r="15.6"/>
	<path id="Path_42" class="st8" d="M380.3,533.3c0-30.8-24.4-55.7-54.6-55.7s-54.6,24.9-54.6,55.7c0,1.3,0,2.6,0.1,3.9h108.9
		C380.3,535.9,380.3,534.6,380.3,533.3z"/>
	<path id="Path_43" class="st7" d="M378.3,532.3c0-29.6-23.5-53.6-52.5-53.6s-52.6,24-52.6,53.6c0,1.3,0,2.5,0.1,3.7h104.9
		C378.2,534.8,378.3,533.6,378.3,532.3z"/>
	<path id="Path_44" class="st9" d="M378.3,532.3c0,0.9,0,1.7-0.1,2.6c0,0.4,0,0.8-0.1,1.2H273.3c0-0.4,0-0.8-0.1-1.2
		c0-0.8-0.1-1.7-0.1-2.6c0-29.6,23.5-53.7,52.6-53.7S378.3,502.7,378.3,532.3z"/>
	<path id="Path_45" class="st8" d="M378.2,534.9c0,0.4,0,0.8-0.1,1.2H273.3c0-0.4,0-0.8-0.1-1.2H378.2z"/>
	<path id="Rectangle_74" class="st8" d="M256.4,537.2h128.9c3.4,0,6.2,2.8,6.2,6.2l0,0c0,3.4-2.8,6.2-6.2,6.2H256.4
		c-3.4,0-6.2-2.8-6.2-6.2l0,0C250.2,539.9,252.9,537.2,256.4,537.2z"/>
	<path id="Rectangle_75" class="st6" d="M256.4,536h128.9c3.4,0,6.2,2.8,6.2,6.2l0,0c0,3.4-2.8,6.2-6.2,6.2H256.4
		c-3.4,0-6.2-2.8-6.2-6.2l0,0C250.2,538.8,252.9,536,256.4,536z"/>
	
		<ellipse id="Ellipse_12" transform="matrix(0.9112 -0.412 0.412 0.9112 -135.6306 250.5778)" class="st8" cx="513.4" cy="439.9" rx="6.9" ry="17.4"/>
	
		<ellipse id="Ellipse_13" transform="matrix(0.9112 -0.412 0.412 0.9112 -135.3412 250.7653)" class="st6" cx="514" cy="439.3" rx="6.9" ry="17.4"/>
	<path id="Path_46" class="st8" d="M497.5,402.1v9h-17.6c-1.6,0-3.3-0.1-4.9-0.4c-1.7-4.3-2.8-6.7-2.8-6.7l15.5-1.1L497.5,402.1z"/>
	<path id="Path_47" class="st7" d="M497.5,410h-17.6c-15.5,0-28-11.5-28-25.9v-2.4c0-14.3,12.5-25.9,28-25.9l17.6,1.6V410z"/>
	<path id="Path_48" class="st10" d="M468.5,371.2c0,0,10.5,5.6,4.5,15.2c0,0-7.4,12.2-19.1,11l-4.3-26.2
		C449.6,371.1,463.6,369.9,468.5,371.2z"/>
	<path id="Path_49" class="st8" d="M464.5,370.6c3.4,0.1,6.5,1.8,8.6,4.5c1.9,2.6,3,6.4,0,11.1c0,0-7.4,12.2-19.1,11l-4.3-26.2
		C454.6,370.7,459.5,370.5,464.5,370.6z"/>
	<path id="Path_50" class="st8" d="M497,357.5h3.4c5.9,0,10.8,4.8,10.8,10.8l0,0v31c0,5.9-4.8,10.8-10.8,10.8H497V357.5z"/>
	<path id="Path_51" class="st6" d="M497.5,357.5h3.4c5.9,0,10.7,4.8,10.7,10.8v31c0,5.9-4.8,10.8-10.8,10.8h-3.4L497.5,357.5z"/>
	<path id="Path_52" class="st2" d="M372.5,424.9c0,0,2.7,1,6.4,2.4c5.8,2.2,13.9,5.5,16.8,7.3s13.4,4.7,21.3,6.8
		c5.9,1.5,11.9,2.3,17.9,2.2c6.1,0,13.6-0.1,15.6-0.1c0.4,0,0.7,0,1.1,0.1c2.2,0.4,2.1,1.8,2,2.1v0c-12.7,7.7-28.1,42.2-29.1,47.9
		c-0.7,4.3-7.1,16.3-10.2,22.1c-1,1.9-1.7,3.1-1.7,3.1l3.9,4.4l11.2,5l10.6,4.6c0,0,11.2,0.6,11.4,0s0.2-6.5,0.2-6.5
		c-1.4-0.9-2.6-1.9-3.9-2.9c-2.6-2.2-4.9-4.7-7.1-7.3c-6.1-7.3,6.2-21.4,6.2-21.4l23.7-30.8c0,0,1.9-3.4,11.1-17.3s0-21.4,0-21.4
		l-16.3-6.8c-28.2-10.6-62.2-19-62.2-19l-0.5-0.1l-7.2-0.9L372.5,424.9z"/>
	<path id="Path_53" class="st11" d="M445.1,528.3c0,0,2,2.4,0.5,2.6c-1.8,0-3.7-0.2-5.5-0.7L415,516.9c0,0-2.7-2-3.4,1.9
		s-1.1,3.5-1.1,3.5s-3.3,7.2,0,8.6s23.3,7.3,23.3,7.3s28.9,6.6,31.7-1s-4.9-6.3-4.9-6.3s-9.5-2.3-12.8-6.9
		C447.8,524,443.1,525.3,445.1,528.3z"/>
	<path id="Path_54" class="st3" d="M479.7,425.3l-16.3-6.8c-28.2-10.6-62.2-19-62.2-19l-0.5-0.1l-7.2-0.9l-21,26.3
		c0,0,2.7,1,6.4,2.4c5.8,2.2,13.9,5.5,16.8,7.3s13.4,4.7,21.3,6.8c5.9,1.5,11.9,2.3,17.9,2.2c6.1,0,13.6-0.1,15.6-0.1
		c0.4,0,0.7,0,1.1,0.1c2.2,0.4,2.1,1.8,2,2.1v0c-12.7,7.7-28.1,42.2-29.1,47.9c-0.7,4.3-7.1,16.3-10.2,22.1l-0.4,0.8
		c-0.8-0.1-1.9,0.2-2.3,2.3c-0.6,3.8-1.1,3.5-1.1,3.5s-3.3,7.1,0,8.6s23.3,7.3,23.3,7.3s29,6.6,31.7-1s-4.9-6.3-4.9-6.3
		s-9.5-2.3-12.8-6.9c-0.3,0.1-0.6,0.2-0.8,0.3c-0.3-0.3-0.7-0.6-1.1-0.9c-2.6-2.2-4.9-4.7-7.1-7.3c-6.2-7.3,6.2-21.4,6.2-21.4
		l23.7-30.8c0,0,1.9-3.4,11.1-17.3S479.7,425.3,479.7,425.3z"/>
	<path id="Path_55" class="st2" d="M353.1,296.1l0.9,1.1l0.5,0.6l3.1,3.9c0,0,7.3,2.3,13.7,3.9c6.7,1.6,12.4,2.3,7.8-1.5
		c-2.8-2.3-3-6.3-2-10.5c0.9-3.2,2.1-6.4,3.7-9.3c0.2-0.4,0.5-0.9,0.7-1.3c1.4-2.7,3-5.2,4.8-7.7c-4.1-2.8-8.4-5.5-12.8-7.8
		c-5.3-2.7-9.6-3.9-6.9,1.5c1.8,3.5,1.2,7.4-0.5,11.1c-0.1,0.3-0.3,0.6-0.4,0.9c-1.5,2.9-3.3,5.6-5.5,8
		C358,291.5,355.7,293.9,353.1,296.1z"/>
	<path id="Path_56" class="st11" d="M389.7,384.1l3.9,3.6l3.8,14.5h-6.3l-7-9.1L389.7,384.1z"/>
	<path id="Path_57" class="st8" d="M384.1,393.1l4.2,5.5l2.8,3.6h6.3l-0.6-2.5l-2.8-10.6l-0.4-1.5l-3.9-3.6l-5.4,8.7L384.1,393.1z"
		/>
	<path id="Path_58" class="st8" d="M384.1,393.1l4.2,5.5l2.8,3.6h6.3l-0.6-2.5l-2.8-10.6l-0.4-1.5l-3.9-3.6l-5.4,8.7L384.1,393.1z"
		/>
	<path id="Path_59" class="st2" d="M363.1,431.4c0,0,2.7,1,6.4,2.4c5.8,2.2,13.9,5.5,16.8,7.3s13.4,4.7,21.3,6.8
		c5.9,1.5,11.9,2.3,17.9,2.2c6.1-0.1,13.6-0.1,15.6-0.1c0.4,0,0.7,0,1.1,0.1c2.2,0.4,2.1,1.8,2,2.1v0.1
		c-12.7,7.7-28.1,42.1-29.1,47.9c-0.7,4.3-7.1,16.3-10.2,22.1c-1,1.9-1.7,3.2-1.7,3.2l3.9,4.4l11.2,5l10.6,4.6c0,0,11.2,0.6,11.4,0
		s0.2-6.5,0.2-6.5c-1.4-0.9-2.6-1.9-3.9-2.9c-2.6-2.2-4.9-4.7-7.1-7.3c-6.1-7.3,6.2-21.4,6.2-21.4l23.7-30.8c0,0,1.9-3.5,11.2-17.3
		s0-21.4,0-21.4l-14.8-8.5c-23.1-14-55.6-22.1-55.6-22.1l-0.5-0.1l-7.2-0.9L363.1,431.4z"/>
	<path id="Path_60" class="st8" d="M403.2,525.3l3.9,4.4l11.2,5l10.6,4.6c0,0,11.2,0.6,11.4,0s0.2-6.5,0.2-6.5
		c-1.4-0.9-2.6-1.9-3.9-2.9c-1.2,0.6-2.6,1.8-1.3,3.7c0,0,2,2.4,0.5,2.6s-5.5-0.7-5.5-0.7L405,522.3l-0.1-0.1L403.2,525.3z"/>
	<path id="Path_61" class="st11" d="M435.8,534.8c0,0,2,2.4,0.5,2.6s-5.5-0.7-5.5-0.7l-25.2-13.3c0,0-2.7-2-3.4,1.9
		s-1.1,3.5-1.1,3.5s-3.3,7.2,0,8.6s23.2,7.3,23.2,7.3s29,6.6,31.7-1s-4.9-6.3-4.9-6.3s-9.5-2.3-12.8-6.9
		C438.4,530.5,433.7,531.8,435.8,534.8z"/>
	<path id="Path_62" class="st8" d="M364.7,278.6c3.3,2.3,8.4,6,12.8,6c1.1,0,2.2-0.1,3.4-0.3c1.6-3.1,3.4-6.1,5.4-9
		c0,0-25.4-17.7-19.7-6.4C368.5,272.7,366.6,274.6,364.7,278.6z"/>
	<path id="Path_63" class="st2" d="M356.7,262.6c0,7,3.6,13.6,9.5,17.4c0.6,0.4,1.3,0.8,2,1.1c10.3,5.2,22.8,1,27.9-9.3
		c5.2-10.3,1-22.8-9.3-27.9c-10.3-5.2-22.8-1-27.9,9.3C357.4,256.2,356.7,259.4,356.7,262.6z"/>
	<path id="Path_64" class="st8" d="M363.1,431.4c0,0,2.7,1,6.4,2.4c2.3-2,4.6-4,5.6-4.3c2.1-0.8,9-4.8,8.9-6s2.9-5.6,5.6-6.4
		s1.1-4.8,1.1-4.8s5.2-1.9,6.5-4.6s5.3-6.2,3.9-6c-0.6-0.1-1.1-0.3-1.6-0.6l-7.2-0.9L363.1,431.4z"/>
	<path id="Path_65" class="st11" d="M347.3,424.5c0,0,8.9,7.3,9.3,10.6s6.3,3.1,6.3,3.1s8.9-8.5,11-9.2s9-4.8,8.9-6s2.9-5.6,5.6-6.4
		s1.1-4.8,1.1-4.8s5.2-1.9,6.5-4.6s5.3-6.2,3.9-6c-1.1-0.3-2.2-0.8-3.1-1.5c-1.9-1.1-4.3-2.7-6.3-4s-3.7-2.5-3.7-2.5
		s-0.9-0.2-2.5-0.4c-8.4-1.2-35.7-4.3-42,5.8c-0.8,1.3-1.5,2.8-1.9,4.3C337.6,413.6,347.3,424.5,347.3,424.5z"/>
	<path id="Path_66" class="st8" d="M356.6,401.1c0,0-9,5.1-12.4,5.1S356.6,401.1,356.6,401.1z"/>
	<path id="Path_67" class="st8" d="M362.7,405c0,0-13.5,4.5-13.5,8.1S347.9,403.6,362.7,405z"/>
	<path id="Path_68" class="st8" d="M394.9,384.6l-0.2,0.3C394.8,384.8,394.8,384.7,394.9,384.6z"/>
	<path id="Path_69" class="st8" d="M353.1,296.1l0.9,1.1l0.5,0.6l3.1,3.9c0,0,7.3,2.3,13.7,3.9c6.7,1.6,12.4,2.3,7.8-1.5
		c-2.8-2.3-3-6.3-2-10.5l-0.2-0.3c0,0,0.2,3.9-2.1,4c-3.1,0.1-3.1-1-6-2.2c-3.7-1.5-7.5-4.2-8.5-6.2
		C358.1,291.5,355.7,293.9,353.1,296.1z"/>
	<path id="Path_70" class="st8" d="M340.4,402.8c1.6,0.7,3.4,0.7,5,0.1c6-1.9,15.4-6.6,19.8-4.5c3.5,1.6,17.8,1.6,23.1,0.2
		c1.3-0.3,2.1-0.8,2-1.3c-0.1-0.6,0-1.2,0.2-1.7c0.9-2.3,2.1-4.5,3.5-6.6l-0.4-1.5l-4-3.6l-5.4,8.7c-8.4-1.2-35.7-4.3-42,5.8
		C341.5,399.8,340.8,401.3,340.4,402.8z"/>
	<path id="Path_71" class="st12" d="M336.5,398.3c1.4,3.2,5,4.7,8.3,3.5c6-1.9,15.4-6.6,19.8-4.5s25.6,1.5,25-1s5.2-10.4,5.2-10.4
		s-3.1-0.6-5.1-10.9c-0.3-1.5-0.5-3.2-0.8-5.2c-0.5-4-0.6-8-0.3-12c0.8-11.1,4.7-15.7,4.7-15.7s5.4-6.2,0.8-14.6
		c-2.4-4.4-12.2-16.8-12.3-22.2c-0.1-5-4.9-10.8-4.9-10.8s0.2,3.9-2.1,4c-3.1,0.1-3.1-1-6-2.1c-4.2-1.8-8.5-4.9-8.8-7
		c0,0-17.6-0.9-21.5,17s-2.5,27.7-1.9,29.8s5.6,29.5,1.5,41C335.7,383.9,335.1,391.2,336.5,398.3z"/>
	<path id="Path_72" class="st8" d="M365.3,366.9c3.2,5.4,7.4,10,12.5,13.7c3.4,0,6.8,0.3,10.1,0.7c-0.3-1.5-0.6-3.2-0.8-5.1
		c-0.5-4-0.6-8-0.3-12c-1.1-0.6-1.9-1.6-2.3-2.8c-1-3.3-9.5-18.9-9.5-18.9s-20.1-5.2-20.8,0S360.3,358.2,365.3,366.9z"/>
	<path id="Path_73" class="st2" d="M372,332.7c0,0,12.1,22.9,13.1,26.2c0.5,1.9,2.2,3.2,4.1,3.3c0,0,12.1,2.9,15,3.3
		s27.9,2.5,27.9,2.5s6.4,0.2,7.1-2.1c0.7-2.1,13-13.2,20.1-3.5c1.3,1.8,1.7,4.2,1,6.3c-1.3,4.2-4,10.8-6.9,6.7
		c-4-5.8-8.8-4.2-8.8-1.1s-6.5,1.9-8.6,2.4c-1.1,0.2-5.1,1.3-8.6,2.2c-4,1.1-8.1,1.7-12.2,2c-6.8,0.5-16.9,0.8-20.4-0.5
		c-4.3-1.6-11.8-2-15-2.1c-1.1,0-2.1-0.4-2.9-1c-4.5-3.5-8.2-7.8-11.1-12.6c-5-8.7-15.3-26.6-14.6-31.8S372,332.7,372,332.7z"/>
	<path id="Path_74" class="st8" d="M367.9,300.9c0,0,6.5,10.8,9.5,18.5s6.7,21.2,6.7,21.2l-18.1-2.1l-1.5-2.5
		c0,0-12.9,8.1-11.4,11.5s-3.5-5.2-3.1-15s-1.4-27.3,0-31.6S363.7,297.6,367.9,300.9z"/>
	<path id="Path_75" class="st12" d="M350,331.3c-0.4,9.8,4.6,18.5,3.1,15s11.4-11.5,11.4-11.5l1.5,2.5l18.1,2.1
		c0,0-3.7-13.5-6.7-21.2c-1.8-4.4-3.9-8.6-6.2-12.7c-1.9-3.4-3.3-5.8-3.3-5.8c-2.5-1.9-7.8-3-12-2.8c-0.7,0-1.3,0.1-2,0.2
		c-1.7,0.3-3.1,1-3.8,2c-0.1,0.2-0.2,0.3-0.2,0.5C348.7,304,350.4,321.5,350,331.3z"/>
	<path id="Path_76" class="st8" d="M341.9,358.2c0,0,7.6,10.5,10,10.8C351.9,369,342.1,366.9,341.9,358.2z"/>
	<path id="Path_77" class="st8" d="M341.9,373.2c0,0,14.4,14.6,19.1,14.7S341.9,373.2,341.9,373.2z"/>
	<path id="Path_78" class="st8" d="M341.9,379.3c0,0,9.2,10.8,9.8,10.8S341.8,386.4,341.9,379.3z"/>
	<path id="Path_79" class="st8" d="M350.2,299.2c1.5-0.2,2.9-0.7,4.2-1.4c0.5-0.3,1-0.5,1.5-0.9c1.9-1.3,3.7-2.7,5.3-4.3
		c2.7-2.6,5.3-5.4,6.4-8.9c0.2-0.8,0.4-1.6,0.5-2.5c0.7-4.5,0.1-9.4,3.3-12.4c0.6-0.6,1.3-1,2-1.4c4.5-2.1,11-0.8,14.4-4.6
		c2.1-2.5,2.1-5.9,3.7-8.5c0.9-1.2,2-2.3,3.2-3.2c-6.3-9.6-19.2-12.3-28.8-5.9c-9.6,6.3-12.3,19.2-5.9,28.8c1.6,2.4,3.7,4.5,6.1,6
		c-0.1,0.3-0.3,0.6-0.4,0.9c-4,8.1-12.6,15.2-12.6,15.2l0.9,1.1C352.2,297.6,350.8,298.2,350.2,299.2z"/>
	<path id="Path_80" class="st13" d="M386.7,262.3c-3.9,4.5-12.1,1.9-16.4,6c-3.8,3.6-2.3,9.9-3.8,14.9c-1.1,3.5-3.8,6.4-6.4,8.9
		c-3.9,3.8-8.8,7.6-14.1,6.5c-3.1-0.6-6.2-3-9.2-1.9c-1.5,0.5-2.6,1.9-3.7,3c-3.8,3.9-8.8,6.5-14.2,7.3c-1.1,0.2-2.2,0.2-3.2-0.1
		c-1.6-0.6-2.5-2.4-4-3.4c-2.9-1.9-6.6,0-9.6,1.7c-17,9.2-37,10.6-55.1,4l4.7-2.3c-1-2-3.7-2.5-5.4-4c-3.5-3.1-1.5-9.2,2.3-12
		s8.5-3.8,12.4-6.4c0.9-0.4,1.5-1.2,1.7-2.2c0-0.7-0.2-1.4-0.6-1.9c-2.1-3.6-4.3-7.5-3.9-11.6c0.7-6.4,7.6-10.3,14-10.7
		s12.7,1.4,19.1,1.5c2.3,0.2,4.6-0.3,6.7-1.4c2.8-1.7,4.2-4.8,5.8-7.6c3-4.9,7.3-8.9,12.4-11.5c5.8-2.9,12.3-3.9,18.3-6.4
		s11.7-6.4,18.1-7.9c9.3-2.3,19.3,0.7,27.3,5.9c3.9,2.5,16.3,10.6,16.2,15.7c-0.1,3.1-4,4.7-5.5,7.1
		C388.8,256.4,388.8,259.8,386.7,262.3z"/>
	<g id="Group_1" class="st14">
		<path id="Path_81" d="M261.3,277.5c0.4,0.6,0.6,1.2,0.6,1.9c0,0.2-0.1,0.5-0.2,0.7c-1.7-3-3.5-6.2-3.8-9.5
			C258.9,273,260,275.3,261.3,277.5z"/>
		<path id="Path_82" d="M245.6,300c1.7,1.5,4.4,1.9,5.4,4l-1.6,0.8c-1.1-0.5-2.2-1.2-3.2-1.9c-1.3-1.1-1.9-2.8-1.8-4.5
			C244.7,299,245.1,299.5,245.6,300z"/>
		<path id="Path_83" d="M301.5,302.3c3-1.7,6.7-3.5,9.6-1.7c1.5,0.9,2.3,2.7,4,3.4c1,0.3,2.1,0.4,3.2,0.1c5.4-0.9,10.4-3.4,14.2-7.3
			c1.1-1.1,2.2-2.5,3.7-3c3-1.1,6.1,1.3,9.2,1.9c5.3,1.1,10.2-2.7,14.1-6.5c2.6-2.6,5.3-5.4,6.4-8.9c1.5-5,0-11.3,3.8-14.9
			c4.3-4.1,12.5-1.5,16.4-6c2.1-2.4,2.1-5.9,3.7-8.5c1.4-2.2,5-3.8,5.5-6.5c0.4,0.7,0.6,1.5,0.6,2.3c-0.1,3.1-4,4.7-5.5,7.1
			c-1.6,2.7-1.6,6.1-3.7,8.5c-3.9,4.5-12.1,1.9-16.4,6c-3.8,3.6-2.3,9.9-3.8,14.9c-1.1,3.5-3.8,6.4-6.4,8.9
			c-3.9,3.8-8.8,7.6-14.1,6.5c-3.1-0.6-6.2-3-9.2-1.9c-1.5,0.5-2.6,1.9-3.7,3c-3.8,3.9-8.8,6.5-14.2,7.3c-1.1,0.2-2.2,0.2-3.2-0.1
			c-1.6-0.7-2.5-2.4-4-3.4c-2.9-1.9-6.6,0-9.6,1.7c-17,9.2-37,10.6-55.1,4l3.2-1.6C267.3,312.7,285.7,310.8,301.5,302.3z"/>
	</g>
	<path id="Path_84" class="st8" d="M444.2,452.1l4.9-2.4v-0.9c0-0.4-3.9,0.4-6.9,1.1C444.3,450.3,444.2,451.8,444.2,452.1z"/>
	<ellipse id="Ellipse_14" class="st10" cx="448.4" cy="384.8" rx="11.7" ry="14.2"/>
	<path id="Path_85" class="st15" d="M335.8,366.3L317,384.8l-61.8-1.1l17-17.5H335.8z"/>
	<path id="Path_86" class="st16" d="M335.8,429.7v-63.4L317,384.8v62.1L335.8,429.7z"/>
	<path id="Path_87" class="st15" d="M255.1,383.7v63.2H317v-62.1L255.1,383.7z"/>
	<path id="Path_88" class="st17" d="M255.1,383.7v63.2H317v-62.1L255.1,383.7z"/>
	<path id="Path_89" class="st6" d="M311.9,402.2l-46-7.9l-6,30.2l47.4,8.7L311.9,402.2z"/>
	<path id="Path_90" class="st10" d="M302.9,409.3l-30.9-4.9l-0.8,4l30.9,5.2L302.9,409.3z"/>
	<path id="Path_91" class="st10" d="M294.4,417.9l-17.6-2.5l-0.8,4.5l18.4,2.6V417.9z"/>
	<path id="Path_92" class="st5" d="M328.2,399.6l-0.8-25l-4.8,4.8l0.9,25L328.2,399.6z"/>
	<path id="Path_93" class="st5" d="M265.9,372.6l59.4,0.8l2,1.1l-4.8,4.8l-1.7-1l-58.9-1.7L265.9,372.6z"/>
</g>
</svg>
